G04 (created by PCBNEW (2013-07-07 BZR 4022)-stable) date 9/8/2013 5:40:36 PM*
%MOIN*%
G04 Gerber Fmt 3.4, Leading zero omitted, Abs format*
%FSLAX34Y34*%
G01*
G70*
G90*
G04 APERTURE LIST*
%ADD10C,0.00590551*%
%ADD11C,0.003*%
%ADD12C,0.0079*%
%ADD13C,0.006*%
G04 APERTURE END LIST*
G54D10*
G54D11*
X96419Y-51733D02*
X96219Y-51800D01*
X96419Y-51866D01*
X96238Y-52047D02*
X96228Y-52038D01*
X96219Y-52009D01*
X96219Y-51990D01*
X96228Y-51961D01*
X96247Y-51942D01*
X96266Y-51933D01*
X96304Y-51923D01*
X96333Y-51923D01*
X96371Y-51933D01*
X96390Y-51942D01*
X96409Y-51961D01*
X96419Y-51990D01*
X96419Y-52009D01*
X96409Y-52038D01*
X96400Y-52047D01*
X96238Y-52247D02*
X96228Y-52238D01*
X96219Y-52209D01*
X96219Y-52190D01*
X96228Y-52161D01*
X96247Y-52142D01*
X96266Y-52133D01*
X96304Y-52123D01*
X96333Y-52123D01*
X96371Y-52133D01*
X96390Y-52142D01*
X96409Y-52161D01*
X96419Y-52190D01*
X96419Y-52209D01*
X96409Y-52238D01*
X96400Y-52247D01*
X96409Y-53847D02*
X96419Y-53828D01*
X96419Y-53800D01*
X96409Y-53771D01*
X96390Y-53752D01*
X96371Y-53742D01*
X96333Y-53733D01*
X96304Y-53733D01*
X96266Y-53742D01*
X96247Y-53752D01*
X96228Y-53771D01*
X96219Y-53800D01*
X96219Y-53819D01*
X96228Y-53847D01*
X96238Y-53857D01*
X96304Y-53857D01*
X96304Y-53819D01*
X96219Y-53942D02*
X96419Y-53942D01*
X96219Y-54057D01*
X96419Y-54057D01*
X96219Y-54152D02*
X96419Y-54152D01*
X96419Y-54200D01*
X96409Y-54228D01*
X96390Y-54247D01*
X96371Y-54257D01*
X96333Y-54266D01*
X96304Y-54266D01*
X96266Y-54257D01*
X96247Y-54247D01*
X96228Y-54228D01*
X96219Y-54200D01*
X96219Y-54152D01*
X96219Y-52900D02*
X96419Y-52900D01*
X96419Y-52947D01*
X96409Y-52976D01*
X96390Y-52995D01*
X96371Y-53004D01*
X96333Y-53014D01*
X96304Y-53014D01*
X96266Y-53004D01*
X96247Y-52995D01*
X96228Y-52976D01*
X96219Y-52947D01*
X96219Y-52900D01*
X96219Y-53100D02*
X96419Y-53100D01*
X93590Y-54152D02*
X93580Y-54171D01*
X93580Y-54200D01*
X93590Y-54228D01*
X93609Y-54247D01*
X93628Y-54257D01*
X93666Y-54266D01*
X93695Y-54266D01*
X93733Y-54257D01*
X93752Y-54247D01*
X93771Y-54228D01*
X93780Y-54200D01*
X93780Y-54180D01*
X93771Y-54152D01*
X93761Y-54142D01*
X93695Y-54142D01*
X93695Y-54180D01*
X93780Y-54057D02*
X93580Y-54057D01*
X93780Y-53942D01*
X93580Y-53942D01*
X93780Y-53847D02*
X93580Y-53847D01*
X93580Y-53800D01*
X93590Y-53771D01*
X93609Y-53752D01*
X93628Y-53742D01*
X93666Y-53733D01*
X93695Y-53733D01*
X93733Y-53742D01*
X93752Y-53752D01*
X93771Y-53771D01*
X93780Y-53800D01*
X93780Y-53847D01*
X93780Y-53157D02*
X93580Y-53157D01*
X93580Y-53109D01*
X93590Y-53080D01*
X93609Y-53061D01*
X93628Y-53052D01*
X93666Y-53042D01*
X93695Y-53042D01*
X93733Y-53052D01*
X93752Y-53061D01*
X93771Y-53080D01*
X93780Y-53109D01*
X93780Y-53157D01*
X93580Y-52919D02*
X93580Y-52880D01*
X93590Y-52861D01*
X93609Y-52842D01*
X93647Y-52833D01*
X93714Y-52833D01*
X93752Y-52842D01*
X93771Y-52861D01*
X93780Y-52880D01*
X93780Y-52919D01*
X93771Y-52938D01*
X93752Y-52957D01*
X93714Y-52966D01*
X93647Y-52966D01*
X93609Y-52957D01*
X93590Y-52938D01*
X93580Y-52919D01*
X93580Y-52266D02*
X93780Y-52200D01*
X93580Y-52133D01*
X93780Y-52066D02*
X93580Y-52066D01*
X93580Y-52019D01*
X93590Y-51990D01*
X93609Y-51971D01*
X93628Y-51961D01*
X93666Y-51952D01*
X93695Y-51952D01*
X93733Y-51961D01*
X93752Y-51971D01*
X93771Y-51990D01*
X93780Y-52019D01*
X93780Y-52066D01*
X93780Y-51866D02*
X93580Y-51866D01*
X93580Y-51819D01*
X93590Y-51790D01*
X93609Y-51771D01*
X93628Y-51761D01*
X93666Y-51752D01*
X93695Y-51752D01*
X93733Y-51761D01*
X93752Y-51771D01*
X93771Y-51790D01*
X93780Y-51819D01*
X93780Y-51866D01*
G54D12*
X94016Y-53394D02*
X94606Y-53984D01*
X95984Y-52016D02*
X95984Y-53984D01*
X95984Y-53984D02*
X94016Y-53984D01*
X94016Y-53984D02*
X94016Y-52016D01*
X94016Y-52016D02*
X95984Y-52016D01*
G54D13*
X92500Y-51500D02*
X93500Y-51500D01*
X93500Y-51500D02*
X93500Y-54500D01*
X93500Y-54500D02*
X92500Y-54500D01*
X92500Y-54500D02*
X92500Y-51500D01*
X93500Y-52500D02*
X92500Y-52500D01*
X96500Y-51500D02*
X97500Y-51500D01*
X97500Y-51500D02*
X97500Y-54500D01*
X97500Y-54500D02*
X96500Y-54500D01*
X96500Y-54500D02*
X96500Y-51500D01*
X97500Y-52500D02*
X96500Y-52500D01*
G54D11*
M02*
