G04 (created by PCBNEW (2013-07-07 BZR 4022)-stable) date 9/8/2013 5:40:36 PM*
%MOIN*%
G04 Gerber Fmt 3.4, Leading zero omitted, Abs format*
%FSLAX34Y34*%
G01*
G70*
G90*
G04 APERTURE LIST*
%ADD10C,0.00590551*%
%ADD11R,0.0393701X0.0590551*%
%ADD12R,0.06X0.06*%
%ADD13C,0.06*%
%ADD14C,0.035*%
%ADD15C,0.015*%
%ADD16C,0.03*%
G04 APERTURE END LIST*
G54D10*
G54D11*
X95000Y-53964D03*
X94370Y-53964D03*
X95629Y-53964D03*
X95629Y-52035D03*
X95000Y-52035D03*
X94370Y-52035D03*
G54D12*
X93000Y-52000D03*
G54D13*
X93000Y-53000D03*
X93000Y-54000D03*
G54D12*
X97000Y-52000D03*
G54D13*
X97000Y-53000D03*
X97000Y-54000D03*
G54D14*
X95700Y-52800D03*
X94800Y-52600D03*
X95600Y-53400D03*
X93900Y-52000D03*
G54D15*
X95000Y-53964D02*
X95000Y-53500D01*
X95000Y-53500D02*
X95700Y-52800D01*
X93000Y-53000D02*
X93405Y-53000D01*
X93405Y-53000D02*
X94370Y-53964D01*
G54D16*
X95629Y-53964D02*
X95629Y-53429D01*
X95629Y-53429D02*
X95600Y-53400D01*
X95000Y-52035D02*
X95000Y-52400D01*
X95000Y-52400D02*
X94800Y-52600D01*
X93600Y-52600D02*
X93000Y-52000D01*
X94800Y-52600D02*
X93600Y-52600D01*
X97000Y-52000D02*
X96600Y-52000D01*
X96200Y-53394D02*
X95629Y-53964D01*
X96200Y-52400D02*
X96200Y-53394D01*
X96600Y-52000D02*
X96200Y-52400D01*
X94370Y-52035D02*
X93935Y-52035D01*
X93935Y-52035D02*
X93900Y-52000D01*
M02*
