G04 (created by PCBNEW (2013-07-07 BZR 4022)-stable) date 9/8/2013 5:40:36 PM*
%MOIN*%
G04 Gerber Fmt 3.4, Leading zero omitted, Abs format*
%FSLAX34Y34*%
G01*
G70*
G90*
G04 APERTURE LIST*
%ADD10C,0.00590551*%
%ADD11C,0.003*%
G04 APERTURE END LIST*
G54D10*
G54D11*
X96452Y-51880D02*
X96452Y-51680D01*
X96385Y-51823D01*
X96319Y-51680D01*
X96319Y-51880D01*
X96138Y-51880D02*
X96138Y-51776D01*
X96147Y-51757D01*
X96166Y-51747D01*
X96204Y-51747D01*
X96223Y-51757D01*
X96138Y-51871D02*
X96157Y-51880D01*
X96204Y-51880D01*
X96223Y-51871D01*
X96233Y-51852D01*
X96233Y-51833D01*
X96223Y-51814D01*
X96204Y-51804D01*
X96157Y-51804D01*
X96138Y-51795D01*
X96042Y-51880D02*
X96042Y-51747D01*
X96042Y-51785D02*
X96033Y-51766D01*
X96023Y-51757D01*
X96004Y-51747D01*
X95985Y-51747D01*
X95919Y-51880D02*
X95919Y-51680D01*
X95900Y-51804D02*
X95842Y-51880D01*
X95842Y-51747D02*
X95919Y-51823D01*
X95538Y-51776D02*
X95509Y-51785D01*
X95500Y-51795D01*
X95490Y-51814D01*
X95490Y-51842D01*
X95500Y-51861D01*
X95509Y-51871D01*
X95528Y-51880D01*
X95604Y-51880D01*
X95604Y-51680D01*
X95538Y-51680D01*
X95519Y-51690D01*
X95509Y-51700D01*
X95500Y-51719D01*
X95500Y-51738D01*
X95509Y-51757D01*
X95519Y-51766D01*
X95538Y-51776D01*
X95604Y-51776D01*
X95404Y-51880D02*
X95404Y-51747D01*
X95404Y-51785D02*
X95395Y-51766D01*
X95385Y-51757D01*
X95366Y-51747D01*
X95347Y-51747D01*
X95195Y-51880D02*
X95195Y-51776D01*
X95204Y-51757D01*
X95223Y-51747D01*
X95261Y-51747D01*
X95280Y-51757D01*
X95195Y-51871D02*
X95214Y-51880D01*
X95261Y-51880D01*
X95280Y-51871D01*
X95290Y-51852D01*
X95290Y-51833D01*
X95280Y-51814D01*
X95261Y-51804D01*
X95214Y-51804D01*
X95195Y-51795D01*
X95014Y-51880D02*
X95014Y-51680D01*
X95014Y-51871D02*
X95033Y-51880D01*
X95071Y-51880D01*
X95090Y-51871D01*
X95100Y-51861D01*
X95109Y-51842D01*
X95109Y-51785D01*
X95100Y-51766D01*
X95090Y-51757D01*
X95071Y-51747D01*
X95033Y-51747D01*
X95014Y-51757D01*
X94890Y-51880D02*
X94909Y-51871D01*
X94919Y-51852D01*
X94919Y-51680D01*
X94738Y-51871D02*
X94757Y-51880D01*
X94795Y-51880D01*
X94814Y-51871D01*
X94823Y-51852D01*
X94823Y-51776D01*
X94814Y-51757D01*
X94795Y-51747D01*
X94757Y-51747D01*
X94738Y-51757D01*
X94728Y-51776D01*
X94728Y-51795D01*
X94823Y-51814D01*
X94661Y-51747D02*
X94614Y-51880D01*
X94566Y-51747D02*
X94614Y-51880D01*
X94633Y-51928D01*
X94642Y-51938D01*
X94661Y-51947D01*
X96461Y-52010D02*
X96452Y-52000D01*
X96433Y-51990D01*
X96385Y-51990D01*
X96366Y-52000D01*
X96357Y-52010D01*
X96347Y-52029D01*
X96347Y-52048D01*
X96357Y-52076D01*
X96471Y-52190D01*
X96347Y-52190D01*
X96223Y-51990D02*
X96204Y-51990D01*
X96185Y-52000D01*
X96176Y-52010D01*
X96166Y-52029D01*
X96157Y-52067D01*
X96157Y-52114D01*
X96166Y-52152D01*
X96176Y-52171D01*
X96185Y-52181D01*
X96204Y-52190D01*
X96223Y-52190D01*
X96242Y-52181D01*
X96252Y-52171D01*
X96261Y-52152D01*
X96271Y-52114D01*
X96271Y-52067D01*
X96261Y-52029D01*
X96252Y-52010D01*
X96242Y-52000D01*
X96223Y-51990D01*
X95966Y-52190D02*
X96080Y-52190D01*
X96023Y-52190D02*
X96023Y-51990D01*
X96042Y-52019D01*
X96061Y-52038D01*
X96080Y-52048D01*
X95899Y-51990D02*
X95776Y-51990D01*
X95842Y-52067D01*
X95814Y-52067D01*
X95795Y-52076D01*
X95785Y-52086D01*
X95776Y-52105D01*
X95776Y-52152D01*
X95785Y-52171D01*
X95795Y-52181D01*
X95814Y-52190D01*
X95871Y-52190D01*
X95890Y-52181D01*
X95899Y-52171D01*
M02*
