G04 (created by PCBNEW (2013-07-07 BZR 4022)-stable) date 9/8/2013 5:40:36 PM*
%MOIN*%
G04 Gerber Fmt 3.4, Leading zero omitted, Abs format*
%FSLAX34Y34*%
G01*
G70*
G90*
G04 APERTURE LIST*
%ADD10C,0.00590551*%
%ADD11R,0.06X0.06*%
%ADD12C,0.06*%
%ADD13C,0.035*%
%ADD14C,0.015*%
%ADD15C,0.03*%
%ADD16C,0.01*%
G04 APERTURE END LIST*
G54D10*
G54D11*
X93000Y-52000D03*
G54D12*
X93000Y-53000D03*
X93000Y-54000D03*
G54D11*
X97000Y-52000D03*
G54D12*
X97000Y-53000D03*
X97000Y-54000D03*
G54D13*
X95700Y-52800D03*
X94800Y-52600D03*
X95600Y-53400D03*
X93900Y-52000D03*
G54D14*
X95700Y-52800D02*
X95900Y-53000D01*
X95900Y-53000D02*
X97000Y-53000D01*
G54D15*
X95600Y-53400D02*
X94800Y-52600D01*
G54D10*
G36*
X97330Y-52693D02*
X97255Y-52618D01*
X97089Y-52550D01*
X96910Y-52549D01*
X96745Y-52618D01*
X96618Y-52744D01*
X96606Y-52775D01*
X96025Y-52775D01*
X96025Y-52735D01*
X95975Y-52616D01*
X95884Y-52524D01*
X95764Y-52475D01*
X95635Y-52474D01*
X95516Y-52524D01*
X95424Y-52615D01*
X95375Y-52735D01*
X95375Y-52750D01*
X95100Y-52476D01*
X95075Y-52416D01*
X94984Y-52324D01*
X94864Y-52275D01*
X94735Y-52274D01*
X94616Y-52324D01*
X94524Y-52415D01*
X94475Y-52535D01*
X94474Y-52664D01*
X94524Y-52783D01*
X94615Y-52875D01*
X94676Y-52900D01*
X95299Y-53523D01*
X95324Y-53583D01*
X95415Y-53675D01*
X95535Y-53724D01*
X95664Y-53725D01*
X95783Y-53675D01*
X95875Y-53584D01*
X95924Y-53464D01*
X95925Y-53335D01*
X95877Y-53220D01*
X95900Y-53225D01*
X96606Y-53225D01*
X96618Y-53254D01*
X96744Y-53381D01*
X96910Y-53449D01*
X96961Y-53449D01*
X96814Y-53470D01*
X96756Y-53494D01*
X96725Y-53584D01*
X97000Y-53858D01*
X97005Y-53853D01*
X97146Y-53994D01*
X97141Y-54000D01*
X97146Y-54005D01*
X97005Y-54146D01*
X97000Y-54141D01*
X96994Y-54146D01*
X96858Y-54011D01*
X96853Y-54005D01*
X96858Y-54000D01*
X96584Y-53725D01*
X96494Y-53756D01*
X96440Y-53968D01*
X96470Y-54185D01*
X96494Y-54243D01*
X96584Y-54274D01*
X96533Y-54325D01*
X96538Y-54330D01*
X93559Y-54330D01*
X93461Y-54330D01*
X93466Y-54325D01*
X93415Y-54274D01*
X93505Y-54243D01*
X93559Y-54031D01*
X93529Y-53814D01*
X93505Y-53756D01*
X93415Y-53725D01*
X93141Y-54000D01*
X93146Y-54005D01*
X93005Y-54146D01*
X93000Y-54141D01*
X92994Y-54146D01*
X92853Y-54005D01*
X92858Y-54000D01*
X92853Y-53994D01*
X92994Y-53853D01*
X93000Y-53858D01*
X93274Y-53584D01*
X93243Y-53494D01*
X93070Y-53450D01*
X93089Y-53450D01*
X93254Y-53381D01*
X93381Y-53255D01*
X93449Y-53089D01*
X93450Y-52910D01*
X93381Y-52745D01*
X93255Y-52618D01*
X93089Y-52550D01*
X92910Y-52549D01*
X92745Y-52618D01*
X92669Y-52693D01*
X92669Y-52449D01*
X92670Y-52449D01*
X92729Y-52450D01*
X93329Y-52450D01*
X93384Y-52427D01*
X93427Y-52385D01*
X93449Y-52329D01*
X93450Y-52270D01*
X93450Y-51670D01*
X93449Y-51669D01*
X96550Y-51669D01*
X96550Y-51670D01*
X96549Y-51729D01*
X96549Y-52329D01*
X96572Y-52384D01*
X96614Y-52427D01*
X96670Y-52449D01*
X96729Y-52450D01*
X97329Y-52450D01*
X97330Y-52449D01*
X97330Y-52693D01*
X97330Y-52693D01*
G37*
G54D16*
X97330Y-52693D02*
X97255Y-52618D01*
X97089Y-52550D01*
X96910Y-52549D01*
X96745Y-52618D01*
X96618Y-52744D01*
X96606Y-52775D01*
X96025Y-52775D01*
X96025Y-52735D01*
X95975Y-52616D01*
X95884Y-52524D01*
X95764Y-52475D01*
X95635Y-52474D01*
X95516Y-52524D01*
X95424Y-52615D01*
X95375Y-52735D01*
X95375Y-52750D01*
X95100Y-52476D01*
X95075Y-52416D01*
X94984Y-52324D01*
X94864Y-52275D01*
X94735Y-52274D01*
X94616Y-52324D01*
X94524Y-52415D01*
X94475Y-52535D01*
X94474Y-52664D01*
X94524Y-52783D01*
X94615Y-52875D01*
X94676Y-52900D01*
X95299Y-53523D01*
X95324Y-53583D01*
X95415Y-53675D01*
X95535Y-53724D01*
X95664Y-53725D01*
X95783Y-53675D01*
X95875Y-53584D01*
X95924Y-53464D01*
X95925Y-53335D01*
X95877Y-53220D01*
X95900Y-53225D01*
X96606Y-53225D01*
X96618Y-53254D01*
X96744Y-53381D01*
X96910Y-53449D01*
X96961Y-53449D01*
X96814Y-53470D01*
X96756Y-53494D01*
X96725Y-53584D01*
X97000Y-53858D01*
X97005Y-53853D01*
X97146Y-53994D01*
X97141Y-54000D01*
X97146Y-54005D01*
X97005Y-54146D01*
X97000Y-54141D01*
X96994Y-54146D01*
X96858Y-54011D01*
X96853Y-54005D01*
X96858Y-54000D01*
X96584Y-53725D01*
X96494Y-53756D01*
X96440Y-53968D01*
X96470Y-54185D01*
X96494Y-54243D01*
X96584Y-54274D01*
X96533Y-54325D01*
X96538Y-54330D01*
X93559Y-54330D01*
X93461Y-54330D01*
X93466Y-54325D01*
X93415Y-54274D01*
X93505Y-54243D01*
X93559Y-54031D01*
X93529Y-53814D01*
X93505Y-53756D01*
X93415Y-53725D01*
X93141Y-54000D01*
X93146Y-54005D01*
X93005Y-54146D01*
X93000Y-54141D01*
X92994Y-54146D01*
X92853Y-54005D01*
X92858Y-54000D01*
X92853Y-53994D01*
X92994Y-53853D01*
X93000Y-53858D01*
X93274Y-53584D01*
X93243Y-53494D01*
X93070Y-53450D01*
X93089Y-53450D01*
X93254Y-53381D01*
X93381Y-53255D01*
X93449Y-53089D01*
X93450Y-52910D01*
X93381Y-52745D01*
X93255Y-52618D01*
X93089Y-52550D01*
X92910Y-52549D01*
X92745Y-52618D01*
X92669Y-52693D01*
X92669Y-52449D01*
X92670Y-52449D01*
X92729Y-52450D01*
X93329Y-52450D01*
X93384Y-52427D01*
X93427Y-52385D01*
X93449Y-52329D01*
X93450Y-52270D01*
X93450Y-51670D01*
X93449Y-51669D01*
X96550Y-51669D01*
X96550Y-51670D01*
X96549Y-51729D01*
X96549Y-52329D01*
X96572Y-52384D01*
X96614Y-52427D01*
X96670Y-52449D01*
X96729Y-52450D01*
X97329Y-52450D01*
X97330Y-52449D01*
X97330Y-52693D01*
M02*
