M48
;DRILL file {Pcbnew (2013-07-07 BZR 4022)-stable} date 8/18/2013 11:19:40 PM
;FORMAT={-:-/ absolute / inch / decimal}
FMAT,2
INCH,TZ
T1C0.025
T2C0.030
T3C0.032
T4C0.040
T5C0.041
T6C0.047
%
G90
G05
M72
T1
X8.55Y-5.85
X8.61Y-5.82
X8.65Y-6.15
X8.7Y-6.35
X8.73Y-5.78
X8.77Y-5.5
X8.78Y-4.92
X8.78Y-5.16
X8.78Y-5.4
X8.78Y-5.66
X9.12Y-5.51
X9.13Y-5.15
X9.13Y-5.39
X9.13Y-6.11
X9.14Y-4.96
X9.19Y-5.09
X9.19Y-5.33
X9.19Y-5.53
X9.19Y-5.61
X9.25Y-5.07
T2
X8.78Y-5.97
X8.78Y-6.17
T3
X8.94Y-5.92
X8.94Y-6.02
X8.94Y-6.12
X8.94Y-6.22
X9.24Y-5.92
X9.24Y-6.02
X9.24Y-6.12
X9.24Y-6.22
T4
X8.55Y-5.45
X8.55Y-5.55
X8.55Y-5.65
X8.55Y-6.05
X8.55Y-6.15
X8.55Y-6.25
X9.07Y-6.42
X9.07Y-6.52
X9.17Y-6.42
X9.17Y-6.52
X9.27Y-6.42
X9.27Y-6.52
X9.35Y-5.45
X9.35Y-5.55
X9.35Y-5.65
X9.35Y-6.05
X9.35Y-6.15
X9.35Y-6.25
T5
X8.7021Y-6.4361
X8.8979Y-6.4361
T6
X8.6917Y-6.5531
X8.9083Y-6.5531
T0
M30
