G04 (created by PCBNEW (2013-07-07 BZR 4022)-stable) date 8/18/2013 11:16:40 PM*
%MOIN*%
G04 Gerber Fmt 3.4, Leading zero omitted, Abs format*
%FSLAX34Y34*%
G01*
G70*
G90*
G04 APERTURE LIST*
%ADD10C,0.00590551*%
%ADD11R,0.0157X0.0689*%
%ADD12R,0.0561X0.0814*%
%ADD13R,0.0843X0.0571*%
%ADD14R,0.0719X0.025*%
%ADD15R,0.063X0.1116*%
%ADD16C,0.063*%
%ADD17C,0.0571*%
%ADD18R,0.06X0.06*%
%ADD19C,0.06*%
%ADD20C,0.056*%
%ADD21R,0.0590551X0.0393701*%
%ADD22R,0.055X0.055*%
%ADD23C,0.055*%
%ADD24R,0.045X0.025*%
%ADD25R,0.035X0.055*%
%ADD26C,0.035*%
%ADD27C,0.015*%
%ADD28C,0.01*%
%ADD29C,0.03*%
G04 APERTURE END LIST*
G54D10*
G54D11*
X87488Y-64419D03*
X87744Y-64419D03*
X88000Y-64419D03*
X88256Y-64419D03*
X88512Y-64419D03*
G54D12*
X87621Y-65544D03*
X88379Y-65544D03*
G54D13*
X86886Y-64360D03*
X89114Y-64360D03*
G54D14*
X86824Y-64873D03*
X89176Y-64873D03*
G54D15*
X86917Y-65306D03*
X89083Y-65306D03*
G54D16*
X86917Y-65531D03*
X89083Y-65531D03*
G54D17*
X87021Y-64361D03*
X88979Y-64361D03*
G54D18*
X92700Y-64200D03*
G54D19*
X92700Y-65200D03*
X91700Y-64200D03*
X91700Y-65200D03*
X90700Y-64200D03*
X90700Y-65200D03*
G54D20*
X87800Y-61700D03*
X87800Y-59700D03*
G54D21*
X90464Y-53300D03*
X90464Y-53929D03*
X90464Y-52670D03*
X88535Y-52670D03*
X88535Y-53300D03*
X88535Y-53929D03*
X90464Y-50900D03*
X90464Y-51529D03*
X90464Y-50270D03*
X88535Y-50270D03*
X88535Y-50900D03*
X88535Y-51529D03*
X90464Y-48500D03*
X90464Y-49129D03*
X90464Y-47870D03*
X88535Y-47870D03*
X88535Y-48500D03*
X88535Y-49129D03*
G54D18*
X85500Y-56500D03*
G54D19*
X85500Y-55500D03*
X85500Y-54500D03*
G54D18*
X93500Y-60500D03*
G54D19*
X93500Y-61500D03*
X93500Y-62500D03*
G54D18*
X85500Y-62500D03*
G54D19*
X85500Y-61500D03*
X85500Y-60500D03*
G54D18*
X93500Y-56500D03*
G54D19*
X93500Y-55500D03*
X93500Y-54500D03*
G54D21*
X90464Y-55700D03*
X90464Y-56329D03*
X90464Y-55070D03*
X88535Y-55070D03*
X88535Y-55700D03*
X88535Y-56329D03*
G54D22*
X89400Y-59200D03*
G54D23*
X89400Y-60200D03*
X89400Y-61200D03*
X89400Y-62200D03*
X92400Y-62200D03*
X92400Y-61200D03*
X92400Y-60200D03*
X92400Y-59200D03*
G54D24*
X90000Y-57800D03*
X90000Y-57200D03*
X89100Y-57800D03*
X89100Y-57200D03*
G54D25*
X86275Y-59200D03*
X85525Y-59200D03*
X88325Y-63300D03*
X89075Y-63300D03*
G54D26*
X86500Y-61500D03*
X87300Y-57800D03*
X87000Y-63500D03*
X92500Y-50700D03*
X91400Y-49600D03*
X91300Y-61100D03*
X86100Y-58200D03*
X85500Y-58500D03*
X87800Y-49200D03*
X87800Y-51600D03*
X87800Y-54000D03*
X87800Y-56600D03*
X91300Y-53900D03*
X91900Y-53300D03*
X91300Y-51500D03*
X91900Y-50900D03*
X91900Y-56100D03*
X91900Y-55300D03*
X87700Y-55000D03*
X91200Y-55100D03*
G54D27*
X90400Y-57800D02*
X91000Y-57800D01*
X90000Y-57800D02*
X90400Y-57800D01*
X91000Y-57800D02*
X92400Y-59200D01*
X85500Y-62500D02*
X86500Y-61500D01*
X87300Y-57800D02*
X89100Y-57800D01*
X89100Y-57800D02*
X90000Y-57800D01*
X87488Y-64419D02*
X87488Y-63988D01*
X86000Y-62500D02*
X85500Y-62500D01*
X87488Y-63988D02*
X87000Y-63500D01*
X87000Y-63500D02*
X86000Y-62500D01*
G54D28*
X90464Y-49129D02*
X90929Y-49129D01*
X92500Y-54500D02*
X93500Y-55500D01*
X92500Y-51800D02*
X92500Y-54500D01*
X92500Y-50700D02*
X92500Y-51800D01*
X90929Y-49129D02*
X91400Y-49600D01*
X92400Y-61200D02*
X93200Y-61200D01*
X93200Y-61200D02*
X93500Y-61500D01*
X91600Y-61400D02*
X91300Y-61100D01*
X92400Y-62200D02*
X91600Y-61400D01*
X92200Y-62600D02*
X92200Y-62400D01*
X92200Y-62400D02*
X92400Y-62200D01*
X91700Y-65200D02*
X92200Y-64700D01*
X92200Y-62600D02*
X92200Y-64700D01*
X92400Y-62200D02*
X92400Y-62400D01*
X92400Y-62200D02*
X93200Y-62200D01*
X93200Y-62200D02*
X93500Y-62500D01*
X90464Y-55700D02*
X92700Y-55700D01*
X92700Y-55700D02*
X93500Y-56500D01*
X90200Y-60600D02*
X90200Y-60000D01*
X90700Y-63300D02*
X90200Y-62800D01*
X90200Y-62800D02*
X90200Y-60600D01*
X90700Y-64200D02*
X90700Y-63300D01*
X90200Y-60000D02*
X89400Y-59200D01*
X88400Y-58200D02*
X89400Y-59200D01*
X87700Y-58200D02*
X88400Y-58200D01*
X86100Y-58200D02*
X87700Y-58200D01*
X91100Y-63600D02*
X91100Y-62900D01*
X92400Y-60200D02*
X91700Y-60200D01*
X91400Y-63900D02*
X91700Y-64200D01*
X91400Y-63900D02*
X91100Y-63600D01*
X91700Y-60200D02*
X91300Y-60200D01*
X91200Y-60200D02*
X91300Y-60200D01*
X90700Y-60700D02*
X91200Y-60200D01*
X90700Y-62500D02*
X90700Y-60700D01*
X91100Y-62900D02*
X90700Y-62500D01*
X92400Y-60200D02*
X93200Y-60200D01*
X93200Y-60200D02*
X93500Y-60500D01*
G54D27*
X85525Y-59200D02*
X85525Y-58525D01*
X85525Y-58525D02*
X85500Y-58500D01*
X85500Y-60500D02*
X85500Y-59225D01*
X85500Y-59225D02*
X85525Y-59200D01*
X89400Y-62975D02*
X89400Y-63000D01*
X90100Y-64600D02*
X90700Y-65200D01*
X90100Y-63700D02*
X90100Y-64600D01*
X89400Y-63000D02*
X90100Y-63700D01*
X89400Y-62200D02*
X89400Y-62975D01*
X89400Y-62975D02*
X89075Y-63300D01*
X88512Y-64419D02*
X88512Y-63863D01*
X88512Y-63863D02*
X89075Y-63300D01*
X89400Y-62200D02*
X89400Y-62600D01*
X89400Y-62200D02*
X89400Y-62624D01*
X88535Y-49129D02*
X87870Y-49129D01*
X87870Y-49129D02*
X87800Y-49200D01*
X88535Y-51529D02*
X87870Y-51529D01*
X87870Y-51529D02*
X87800Y-51600D01*
X88535Y-53929D02*
X87870Y-53929D01*
X87870Y-53929D02*
X87800Y-54000D01*
X88535Y-56329D02*
X88070Y-56329D01*
X88070Y-56329D02*
X87800Y-56600D01*
G54D28*
X91900Y-53300D02*
X91900Y-51500D01*
X91270Y-53929D02*
X91300Y-53900D01*
X90464Y-50900D02*
X91300Y-50900D01*
X91270Y-53929D02*
X90464Y-53929D01*
X91900Y-51500D02*
X91300Y-50900D01*
X91900Y-50900D02*
X91900Y-49100D01*
X91270Y-51529D02*
X91300Y-51500D01*
X90464Y-48500D02*
X91300Y-48500D01*
X91270Y-51529D02*
X90464Y-51529D01*
X91900Y-49100D02*
X91300Y-48500D01*
X86275Y-59200D02*
X87300Y-59200D01*
X87300Y-59200D02*
X87800Y-59700D01*
X89400Y-60200D02*
X88300Y-60200D01*
X88300Y-60200D02*
X87800Y-59700D01*
X87800Y-61700D02*
X87800Y-62775D01*
X87800Y-62775D02*
X88325Y-63300D01*
X89400Y-61200D02*
X88300Y-61200D01*
X88300Y-61200D02*
X87800Y-61700D01*
X91300Y-53300D02*
X91900Y-53900D01*
X90464Y-53300D02*
X91300Y-53300D01*
X91670Y-56329D02*
X90464Y-56329D01*
X91900Y-56100D02*
X91670Y-56329D01*
X91900Y-53900D02*
X91900Y-55300D01*
G54D29*
X90464Y-55070D02*
X91170Y-55070D01*
X87200Y-55500D02*
X85500Y-55500D01*
X87700Y-55000D02*
X87200Y-55500D01*
X91170Y-55070D02*
X91200Y-55100D01*
X90464Y-50270D02*
X89800Y-50270D01*
X89800Y-50270D02*
X89800Y-50300D01*
X90464Y-52670D02*
X89800Y-52670D01*
X89800Y-52670D02*
X89800Y-52700D01*
X90464Y-55070D02*
X89800Y-55070D01*
X89800Y-55070D02*
X89800Y-55000D01*
X90000Y-57200D02*
X90000Y-57100D01*
X90129Y-47870D02*
X90464Y-47870D01*
X89800Y-48200D02*
X90129Y-47870D01*
X89800Y-56900D02*
X89800Y-55000D01*
X89800Y-55000D02*
X89800Y-52700D01*
X89800Y-52700D02*
X89800Y-50300D01*
X89800Y-50300D02*
X89800Y-48200D01*
X90000Y-57100D02*
X89800Y-56900D01*
X88535Y-55700D02*
X87900Y-55700D01*
X87100Y-56500D02*
X85500Y-56500D01*
X87900Y-55700D02*
X87100Y-56500D01*
X88535Y-55700D02*
X89200Y-55700D01*
X88535Y-53300D02*
X89200Y-53300D01*
X89200Y-53300D02*
X89200Y-53200D01*
X88535Y-50900D02*
X89200Y-50900D01*
X89100Y-57200D02*
X89100Y-57000D01*
X89000Y-48500D02*
X88535Y-48500D01*
X89200Y-48700D02*
X89000Y-48500D01*
X89200Y-56900D02*
X89200Y-55700D01*
X89200Y-55700D02*
X89200Y-53200D01*
X89200Y-53200D02*
X89200Y-50900D01*
X89200Y-50900D02*
X89200Y-48700D01*
X89100Y-57000D02*
X89200Y-56900D01*
M02*
