G04 (created by PCBNEW (2013-07-07 BZR 4022)-stable) date 8/18/2013 11:37:10 PM*
%MOIN*%
G04 Gerber Fmt 3.4, Leading zero omitted, Abs format*
%FSLAX34Y34*%
G01*
G70*
G90*
G04 APERTURE LIST*
%ADD10C,0.00590551*%
%ADD11C,0.00787402*%
%ADD12C,0.008*%
%ADD13C,0.0125*%
%ADD14C,0.0079*%
%ADD15C,0.006*%
%ADD16C,0.01*%
%ADD17C,0.005*%
%ADD18C,0.0039*%
%ADD19C,0.012*%
%ADD20C,0.0045*%
%ADD21C,0.0043*%
G04 APERTURE END LIST*
G54D10*
G54D11*
X94000Y-57500D02*
X85000Y-57500D01*
G54D12*
X90200Y-63700D02*
X93200Y-63700D01*
X93200Y-65700D02*
X90200Y-65700D01*
X90200Y-65700D02*
X90200Y-63700D01*
X93200Y-63700D02*
X93200Y-65700D01*
G54D13*
X88800Y-61950D02*
X88800Y-59450D01*
X86800Y-61950D02*
X86800Y-59450D01*
X87800Y-58450D02*
G75*
G03X86800Y-59450I0J-1000D01*
G74*
G01*
X88800Y-59450D02*
G75*
G03X87800Y-58450I-1000J0D01*
G74*
G01*
X86800Y-61950D02*
G75*
G03X87800Y-62950I1000J0D01*
G74*
G01*
X87800Y-62950D02*
G75*
G03X88800Y-61950I0J1000D01*
G74*
G01*
G54D14*
X89894Y-54284D02*
X90484Y-53694D01*
X88516Y-52316D02*
X90484Y-52316D01*
X90484Y-52316D02*
X90484Y-54284D01*
X90484Y-54284D02*
X88516Y-54284D01*
X88516Y-54284D02*
X88516Y-52316D01*
X89894Y-51884D02*
X90484Y-51294D01*
X88516Y-49916D02*
X90484Y-49916D01*
X90484Y-49916D02*
X90484Y-51884D01*
X90484Y-51884D02*
X88516Y-51884D01*
X88516Y-51884D02*
X88516Y-49916D01*
X89894Y-49484D02*
X90484Y-48894D01*
X88516Y-47516D02*
X90484Y-47516D01*
X90484Y-47516D02*
X90484Y-49484D01*
X90484Y-49484D02*
X88516Y-49484D01*
X88516Y-49484D02*
X88516Y-47516D01*
G54D15*
X86000Y-57000D02*
X85000Y-57000D01*
X85000Y-57000D02*
X85000Y-54000D01*
X85000Y-54000D02*
X86000Y-54000D01*
X86000Y-54000D02*
X86000Y-57000D01*
X85000Y-56000D02*
X86000Y-56000D01*
X93000Y-60000D02*
X94000Y-60000D01*
X94000Y-60000D02*
X94000Y-63000D01*
X94000Y-63000D02*
X93000Y-63000D01*
X93000Y-63000D02*
X93000Y-60000D01*
X94000Y-61000D02*
X93000Y-61000D01*
X86000Y-63000D02*
X85000Y-63000D01*
X85000Y-63000D02*
X85000Y-60000D01*
X85000Y-60000D02*
X86000Y-60000D01*
X86000Y-60000D02*
X86000Y-63000D01*
X85000Y-62000D02*
X86000Y-62000D01*
X94000Y-57000D02*
X93000Y-57000D01*
X93000Y-57000D02*
X93000Y-54000D01*
X93000Y-54000D02*
X94000Y-54000D01*
X94000Y-54000D02*
X94000Y-57000D01*
X93000Y-56000D02*
X94000Y-56000D01*
G54D14*
X89894Y-56684D02*
X90484Y-56094D01*
X88516Y-54716D02*
X90484Y-54716D01*
X90484Y-54716D02*
X90484Y-56684D01*
X90484Y-56684D02*
X88516Y-56684D01*
X88516Y-56684D02*
X88516Y-54716D01*
G54D16*
X91400Y-58700D02*
X91400Y-59200D01*
X91400Y-59200D02*
X90400Y-59200D01*
X90400Y-59200D02*
X90400Y-58700D01*
X91900Y-58700D02*
X91900Y-62700D01*
X91900Y-62700D02*
X89900Y-62700D01*
X89900Y-62700D02*
X89900Y-58700D01*
X89900Y-58700D02*
X91900Y-58700D01*
G54D17*
X89750Y-57950D02*
X89750Y-57050D01*
X89750Y-57050D02*
X90250Y-57050D01*
X90250Y-57050D02*
X90250Y-57950D01*
X90250Y-57950D02*
X89750Y-57950D01*
X88850Y-57950D02*
X88850Y-57050D01*
X88850Y-57050D02*
X89350Y-57050D01*
X89350Y-57050D02*
X89350Y-57950D01*
X89350Y-57950D02*
X88850Y-57950D01*
G54D18*
X86600Y-58900D02*
G75*
G03X86600Y-58900I-50J0D01*
G74*
G01*
X86100Y-58900D02*
X86500Y-58900D01*
X86500Y-58900D02*
X86500Y-59500D01*
X86500Y-59500D02*
X86100Y-59500D01*
X85700Y-59500D02*
X85300Y-59500D01*
X85300Y-59500D02*
X85300Y-58900D01*
X85300Y-58900D02*
X85700Y-58900D01*
X88100Y-63600D02*
G75*
G03X88100Y-63600I-50J0D01*
G74*
G01*
X88500Y-63600D02*
X88100Y-63600D01*
X88100Y-63600D02*
X88100Y-63000D01*
X88100Y-63000D02*
X88500Y-63000D01*
X88900Y-63000D02*
X89300Y-63000D01*
X89300Y-63000D02*
X89300Y-63600D01*
X89300Y-63600D02*
X88900Y-63600D01*
G54D19*
X87642Y-65416D02*
X88071Y-65416D01*
X88157Y-65444D01*
X88214Y-65501D01*
X88242Y-65587D01*
X88242Y-65644D01*
X88242Y-64816D02*
X88242Y-65158D01*
X88242Y-64987D02*
X87642Y-64987D01*
X87728Y-65044D01*
X87785Y-65101D01*
X87814Y-65158D01*
G54D12*
X91404Y-63461D02*
X91404Y-63061D01*
X91557Y-63061D01*
X91595Y-63080D01*
X91614Y-63100D01*
X91633Y-63138D01*
X91633Y-63195D01*
X91614Y-63233D01*
X91595Y-63252D01*
X91557Y-63271D01*
X91404Y-63271D01*
X92014Y-63461D02*
X91785Y-63461D01*
X91900Y-63461D02*
X91900Y-63061D01*
X91861Y-63119D01*
X91823Y-63157D01*
X91785Y-63176D01*
G54D19*
X85942Y-61185D02*
X86542Y-60785D01*
X85942Y-60785D02*
X86542Y-61185D01*
X86542Y-60242D02*
X86542Y-60585D01*
X86542Y-60414D02*
X85942Y-60414D01*
X86028Y-60471D01*
X86085Y-60528D01*
X86114Y-60585D01*
X89485Y-62085D02*
X89514Y-62114D01*
X89542Y-62200D01*
X89542Y-62257D01*
X89514Y-62342D01*
X89457Y-62400D01*
X89400Y-62428D01*
X89285Y-62457D01*
X89200Y-62457D01*
X89085Y-62428D01*
X89028Y-62400D01*
X88971Y-62342D01*
X88942Y-62257D01*
X88942Y-62200D01*
X88971Y-62114D01*
X89000Y-62085D01*
X89542Y-61485D02*
X89257Y-61685D01*
X89542Y-61828D02*
X88942Y-61828D01*
X88942Y-61600D01*
X88971Y-61542D01*
X89000Y-61514D01*
X89057Y-61485D01*
X89142Y-61485D01*
X89200Y-61514D01*
X89228Y-61542D01*
X89257Y-61600D01*
X89257Y-61828D01*
X89257Y-61114D02*
X89542Y-61114D01*
X88942Y-61314D02*
X89257Y-61114D01*
X88942Y-60914D01*
X89514Y-60742D02*
X89542Y-60657D01*
X89542Y-60514D01*
X89514Y-60457D01*
X89485Y-60428D01*
X89428Y-60400D01*
X89371Y-60400D01*
X89314Y-60428D01*
X89285Y-60457D01*
X89257Y-60514D01*
X89228Y-60628D01*
X89200Y-60685D01*
X89171Y-60714D01*
X89114Y-60742D01*
X89057Y-60742D01*
X89000Y-60714D01*
X88971Y-60685D01*
X88942Y-60628D01*
X88942Y-60485D01*
X88971Y-60400D01*
X88942Y-60228D02*
X88942Y-59885D01*
X89542Y-60057D02*
X88942Y-60057D01*
X89371Y-59714D02*
X89371Y-59428D01*
X89542Y-59771D02*
X88942Y-59571D01*
X89542Y-59371D01*
X89542Y-58885D02*
X89542Y-59171D01*
X88942Y-59171D01*
G54D15*
X85561Y-53795D02*
X85161Y-53795D01*
X85561Y-53566D02*
X85333Y-53738D01*
X85161Y-53566D02*
X85390Y-53795D01*
X85200Y-53414D02*
X85180Y-53395D01*
X85161Y-53357D01*
X85161Y-53261D01*
X85180Y-53223D01*
X85200Y-53204D01*
X85238Y-53185D01*
X85276Y-53185D01*
X85333Y-53204D01*
X85561Y-53433D01*
X85561Y-53185D01*
X93861Y-59795D02*
X93461Y-59795D01*
X93861Y-59566D02*
X93633Y-59738D01*
X93461Y-59566D02*
X93690Y-59795D01*
X93861Y-59185D02*
X93861Y-59414D01*
X93861Y-59299D02*
X93461Y-59299D01*
X93519Y-59338D01*
X93557Y-59376D01*
X93576Y-59414D01*
X85561Y-63795D02*
X85161Y-63795D01*
X85561Y-63566D02*
X85333Y-63738D01*
X85161Y-63566D02*
X85390Y-63795D01*
X85161Y-63433D02*
X85161Y-63185D01*
X85314Y-63319D01*
X85314Y-63261D01*
X85333Y-63223D01*
X85352Y-63204D01*
X85390Y-63185D01*
X85485Y-63185D01*
X85523Y-63204D01*
X85542Y-63223D01*
X85561Y-63261D01*
X85561Y-63376D01*
X85542Y-63414D01*
X85523Y-63433D01*
X93861Y-53795D02*
X93461Y-53795D01*
X93861Y-53566D02*
X93633Y-53738D01*
X93461Y-53566D02*
X93690Y-53795D01*
X93595Y-53223D02*
X93861Y-53223D01*
X93442Y-53319D02*
X93728Y-53414D01*
X93728Y-53166D01*
G54D12*
X90460Y-58402D02*
X90460Y-57902D01*
X90932Y-58354D02*
X90910Y-58378D01*
X90846Y-58402D01*
X90803Y-58402D01*
X90739Y-58378D01*
X90696Y-58330D01*
X90675Y-58283D01*
X90653Y-58188D01*
X90653Y-58116D01*
X90675Y-58021D01*
X90696Y-57973D01*
X90739Y-57926D01*
X90803Y-57902D01*
X90846Y-57902D01*
X90910Y-57926D01*
X90932Y-57950D01*
X91339Y-57902D02*
X91125Y-57902D01*
X91103Y-58140D01*
X91125Y-58116D01*
X91167Y-58092D01*
X91275Y-58092D01*
X91317Y-58116D01*
X91339Y-58140D01*
X91360Y-58188D01*
X91360Y-58307D01*
X91339Y-58354D01*
X91317Y-58378D01*
X91275Y-58402D01*
X91167Y-58402D01*
X91125Y-58378D01*
X91103Y-58354D01*
X90959Y-62404D02*
X90959Y-62214D01*
X91102Y-62442D02*
X90602Y-62309D01*
X91102Y-62176D01*
X90602Y-62100D02*
X90602Y-61871D01*
X91102Y-61985D02*
X90602Y-61985D01*
X90602Y-61795D02*
X90602Y-61566D01*
X91102Y-61680D02*
X90602Y-61680D01*
X91102Y-61433D02*
X90602Y-61433D01*
X91102Y-61242D02*
X90602Y-61242D01*
X91102Y-61014D01*
X90602Y-61014D01*
X90864Y-60747D02*
X91102Y-60747D01*
X90602Y-60880D02*
X90864Y-60747D01*
X90602Y-60614D01*
X90816Y-60423D02*
X90792Y-60461D01*
X90769Y-60480D01*
X90721Y-60500D01*
X90697Y-60500D01*
X90650Y-60480D01*
X90626Y-60461D01*
X90602Y-60423D01*
X90602Y-60347D01*
X90626Y-60309D01*
X90650Y-60290D01*
X90697Y-60271D01*
X90721Y-60271D01*
X90769Y-60290D01*
X90792Y-60309D01*
X90816Y-60347D01*
X90816Y-60423D01*
X90840Y-60461D01*
X90864Y-60480D01*
X90911Y-60500D01*
X91007Y-60500D01*
X91054Y-60480D01*
X91078Y-60461D01*
X91102Y-60423D01*
X91102Y-60347D01*
X91078Y-60309D01*
X91054Y-60290D01*
X91007Y-60271D01*
X90911Y-60271D01*
X90864Y-60290D01*
X90840Y-60309D01*
X90816Y-60347D01*
X90602Y-59909D02*
X90602Y-60100D01*
X90840Y-60119D01*
X90816Y-60100D01*
X90792Y-60061D01*
X90792Y-59966D01*
X90816Y-59928D01*
X90840Y-59909D01*
X90888Y-59890D01*
X91007Y-59890D01*
X91054Y-59909D01*
X91078Y-59928D01*
X91102Y-59966D01*
X91102Y-60061D01*
X91078Y-60100D01*
X91054Y-60119D01*
X90911Y-59719D02*
X90911Y-59414D01*
X91102Y-59223D02*
X90602Y-59223D01*
X90602Y-59071D01*
X90626Y-59033D01*
X90650Y-59014D01*
X90697Y-58995D01*
X90769Y-58995D01*
X90816Y-59014D01*
X90840Y-59033D01*
X90864Y-59071D01*
X90864Y-59223D01*
G54D20*
X89890Y-57624D02*
X89880Y-57641D01*
X89880Y-57667D01*
X89890Y-57692D01*
X89909Y-57710D01*
X89928Y-57718D01*
X89966Y-57727D01*
X89995Y-57727D01*
X90033Y-57718D01*
X90052Y-57710D01*
X90071Y-57692D01*
X90080Y-57667D01*
X90080Y-57650D01*
X90071Y-57624D01*
X90061Y-57615D01*
X89995Y-57615D01*
X89995Y-57650D01*
X90071Y-57547D02*
X90080Y-57521D01*
X90080Y-57478D01*
X90071Y-57461D01*
X90061Y-57452D01*
X90042Y-57444D01*
X90023Y-57444D01*
X90004Y-57452D01*
X89995Y-57461D01*
X89985Y-57478D01*
X89976Y-57512D01*
X89966Y-57530D01*
X89957Y-57538D01*
X89938Y-57547D01*
X89919Y-57547D01*
X89900Y-57538D01*
X89890Y-57530D01*
X89880Y-57512D01*
X89880Y-57470D01*
X89890Y-57444D01*
X90080Y-57272D02*
X90080Y-57375D01*
X90080Y-57324D02*
X89880Y-57324D01*
X89909Y-57341D01*
X89928Y-57358D01*
X89938Y-57375D01*
X88990Y-57624D02*
X88980Y-57641D01*
X88980Y-57667D01*
X88990Y-57692D01*
X89009Y-57710D01*
X89028Y-57718D01*
X89066Y-57727D01*
X89095Y-57727D01*
X89133Y-57718D01*
X89152Y-57710D01*
X89171Y-57692D01*
X89180Y-57667D01*
X89180Y-57650D01*
X89171Y-57624D01*
X89161Y-57615D01*
X89095Y-57615D01*
X89095Y-57650D01*
X89171Y-57547D02*
X89180Y-57521D01*
X89180Y-57478D01*
X89171Y-57461D01*
X89161Y-57452D01*
X89142Y-57444D01*
X89123Y-57444D01*
X89104Y-57452D01*
X89095Y-57461D01*
X89085Y-57478D01*
X89076Y-57512D01*
X89066Y-57530D01*
X89057Y-57538D01*
X89038Y-57547D01*
X89019Y-57547D01*
X89000Y-57538D01*
X88990Y-57530D01*
X88980Y-57512D01*
X88980Y-57470D01*
X88990Y-57444D01*
X89000Y-57375D02*
X88990Y-57367D01*
X88980Y-57350D01*
X88980Y-57307D01*
X88990Y-57290D01*
X89000Y-57281D01*
X89019Y-57272D01*
X89038Y-57272D01*
X89066Y-57281D01*
X89180Y-57384D01*
X89180Y-57272D01*
G54D21*
X85867Y-59385D02*
X85857Y-59395D01*
X85829Y-59404D01*
X85810Y-59404D01*
X85782Y-59395D01*
X85763Y-59376D01*
X85754Y-59357D01*
X85745Y-59320D01*
X85745Y-59292D01*
X85754Y-59254D01*
X85763Y-59235D01*
X85782Y-59217D01*
X85810Y-59207D01*
X85829Y-59207D01*
X85857Y-59217D01*
X85867Y-59226D01*
X86054Y-59404D02*
X85942Y-59404D01*
X85998Y-59404D02*
X85998Y-59207D01*
X85979Y-59235D01*
X85960Y-59254D01*
X85942Y-59264D01*
X85768Y-59110D02*
X85759Y-59120D01*
X85731Y-59129D01*
X85712Y-59129D01*
X85684Y-59120D01*
X85665Y-59101D01*
X85656Y-59082D01*
X85646Y-59045D01*
X85646Y-59017D01*
X85656Y-58979D01*
X85665Y-58960D01*
X85684Y-58942D01*
X85712Y-58932D01*
X85731Y-58932D01*
X85759Y-58942D01*
X85768Y-58951D01*
X85853Y-59129D02*
X85853Y-58932D01*
X85928Y-58932D01*
X85946Y-58942D01*
X85956Y-58951D01*
X85965Y-58970D01*
X85965Y-58998D01*
X85956Y-59017D01*
X85946Y-59026D01*
X85928Y-59035D01*
X85853Y-59035D01*
X86153Y-59129D02*
X86040Y-59129D01*
X86097Y-59129D02*
X86097Y-58932D01*
X86078Y-58960D01*
X86059Y-58979D01*
X86040Y-58989D01*
X88667Y-63235D02*
X88657Y-63245D01*
X88629Y-63254D01*
X88610Y-63254D01*
X88582Y-63245D01*
X88563Y-63226D01*
X88554Y-63207D01*
X88545Y-63170D01*
X88545Y-63142D01*
X88554Y-63104D01*
X88563Y-63085D01*
X88582Y-63067D01*
X88610Y-63057D01*
X88629Y-63057D01*
X88657Y-63067D01*
X88667Y-63076D01*
X88742Y-63076D02*
X88751Y-63067D01*
X88770Y-63057D01*
X88817Y-63057D01*
X88836Y-63067D01*
X88845Y-63076D01*
X88854Y-63095D01*
X88854Y-63114D01*
X88845Y-63142D01*
X88732Y-63254D01*
X88854Y-63254D01*
X88568Y-63510D02*
X88559Y-63520D01*
X88531Y-63529D01*
X88512Y-63529D01*
X88484Y-63520D01*
X88465Y-63501D01*
X88456Y-63482D01*
X88446Y-63445D01*
X88446Y-63417D01*
X88456Y-63379D01*
X88465Y-63360D01*
X88484Y-63342D01*
X88512Y-63332D01*
X88531Y-63332D01*
X88559Y-63342D01*
X88568Y-63351D01*
X88653Y-63529D02*
X88653Y-63332D01*
X88728Y-63332D01*
X88746Y-63342D01*
X88756Y-63351D01*
X88765Y-63370D01*
X88765Y-63398D01*
X88756Y-63417D01*
X88746Y-63426D01*
X88728Y-63435D01*
X88653Y-63435D01*
X88953Y-63529D02*
X88840Y-63529D01*
X88897Y-63529D02*
X88897Y-63332D01*
X88878Y-63360D01*
X88859Y-63379D01*
X88840Y-63389D01*
M02*
