G04 (created by PCBNEW (2013-07-07 BZR 4022)-stable) date 9/10/2013 12:20:35 AM*
%MOIN*%
G04 Gerber Fmt 3.4, Leading zero omitted, Abs format*
%FSLAX34Y34*%
G01*
G70*
G90*
G04 APERTURE LIST*
%ADD10C,0.00590551*%
%ADD11C,0.005*%
%ADD12C,0.002*%
%ADD13C,0.0039*%
%ADD14C,0.008*%
%ADD15C,0.006*%
%ADD16C,0.0125*%
%ADD17C,0.01*%
%ADD18C,0.0043*%
%ADD19C,0.012*%
G04 APERTURE END LIST*
G54D10*
G54D11*
X94221Y-63621D02*
X93921Y-63621D01*
X94135Y-63521D01*
X93921Y-63421D01*
X94221Y-63421D01*
X94221Y-63278D02*
X93921Y-63278D01*
X94207Y-63150D02*
X94221Y-63107D01*
X94221Y-63035D01*
X94207Y-63007D01*
X94192Y-62992D01*
X94164Y-62978D01*
X94135Y-62978D01*
X94107Y-62992D01*
X94092Y-63007D01*
X94078Y-63035D01*
X94064Y-63092D01*
X94050Y-63121D01*
X94035Y-63135D01*
X94007Y-63150D01*
X93978Y-63150D01*
X93950Y-63135D01*
X93935Y-63121D01*
X93921Y-63092D01*
X93921Y-63021D01*
X93935Y-62978D01*
X93921Y-62792D02*
X93921Y-62735D01*
X93935Y-62707D01*
X93964Y-62678D01*
X94021Y-62664D01*
X94121Y-62664D01*
X94178Y-62678D01*
X94207Y-62707D01*
X94221Y-62735D01*
X94221Y-62792D01*
X94207Y-62821D01*
X94178Y-62850D01*
X94121Y-62864D01*
X94021Y-62864D01*
X93964Y-62850D01*
X93935Y-62821D01*
X93921Y-62792D01*
X82992Y-62814D02*
X82978Y-62857D01*
X82978Y-62928D01*
X82992Y-62957D01*
X83007Y-62971D01*
X83035Y-62985D01*
X83064Y-62985D01*
X83092Y-62971D01*
X83107Y-62957D01*
X83121Y-62928D01*
X83135Y-62871D01*
X83150Y-62842D01*
X83164Y-62828D01*
X83192Y-62814D01*
X83221Y-62814D01*
X83250Y-62828D01*
X83264Y-62842D01*
X83278Y-62871D01*
X83278Y-62942D01*
X83264Y-62985D01*
X83007Y-63285D02*
X82992Y-63271D01*
X82978Y-63228D01*
X82978Y-63200D01*
X82992Y-63157D01*
X83021Y-63128D01*
X83050Y-63114D01*
X83107Y-63100D01*
X83150Y-63100D01*
X83207Y-63114D01*
X83235Y-63128D01*
X83264Y-63157D01*
X83278Y-63200D01*
X83278Y-63228D01*
X83264Y-63271D01*
X83250Y-63285D01*
X82978Y-63414D02*
X83278Y-63414D01*
X82978Y-63585D02*
X83150Y-63457D01*
X83278Y-63585D02*
X83107Y-63414D01*
X93564Y-60907D02*
X93607Y-60921D01*
X93678Y-60921D01*
X93707Y-60907D01*
X93721Y-60892D01*
X93735Y-60864D01*
X93735Y-60835D01*
X93721Y-60807D01*
X93707Y-60792D01*
X93678Y-60778D01*
X93621Y-60764D01*
X93592Y-60750D01*
X93578Y-60735D01*
X93564Y-60707D01*
X93564Y-60678D01*
X93578Y-60650D01*
X93592Y-60635D01*
X93621Y-60621D01*
X93692Y-60621D01*
X93735Y-60635D01*
X94035Y-60892D02*
X94021Y-60907D01*
X93978Y-60921D01*
X93950Y-60921D01*
X93907Y-60907D01*
X93878Y-60878D01*
X93864Y-60850D01*
X93850Y-60792D01*
X93850Y-60750D01*
X93864Y-60692D01*
X93878Y-60664D01*
X93907Y-60635D01*
X93950Y-60621D01*
X93978Y-60621D01*
X94021Y-60635D01*
X94035Y-60650D01*
X94164Y-60921D02*
X94164Y-60621D01*
X94335Y-60921D02*
X94207Y-60750D01*
X94335Y-60621D02*
X94164Y-60792D01*
G54D12*
X93269Y-58685D02*
X93469Y-58685D01*
X93326Y-58752D01*
X93469Y-58819D01*
X93269Y-58819D01*
X93269Y-58914D02*
X93469Y-58914D01*
X93278Y-59000D02*
X93269Y-59028D01*
X93269Y-59076D01*
X93278Y-59095D01*
X93288Y-59104D01*
X93307Y-59114D01*
X93326Y-59114D01*
X93345Y-59104D01*
X93354Y-59095D01*
X93364Y-59076D01*
X93373Y-59038D01*
X93383Y-59019D01*
X93392Y-59009D01*
X93411Y-59000D01*
X93430Y-59000D01*
X93450Y-59009D01*
X93459Y-59019D01*
X93469Y-59038D01*
X93469Y-59085D01*
X93459Y-59114D01*
X93469Y-59238D02*
X93469Y-59276D01*
X93459Y-59295D01*
X93440Y-59314D01*
X93402Y-59323D01*
X93335Y-59323D01*
X93297Y-59314D01*
X93278Y-59295D01*
X93269Y-59276D01*
X93269Y-59238D01*
X93278Y-59219D01*
X93297Y-59200D01*
X93335Y-59190D01*
X93402Y-59190D01*
X93440Y-59200D01*
X93459Y-59219D01*
X93469Y-59238D01*
X93269Y-57735D02*
X93469Y-57735D01*
X93326Y-57802D01*
X93469Y-57869D01*
X93269Y-57869D01*
X93469Y-58002D02*
X93469Y-58040D01*
X93459Y-58059D01*
X93440Y-58078D01*
X93402Y-58088D01*
X93335Y-58088D01*
X93297Y-58078D01*
X93278Y-58059D01*
X93269Y-58040D01*
X93269Y-58002D01*
X93278Y-57983D01*
X93297Y-57964D01*
X93335Y-57954D01*
X93402Y-57954D01*
X93440Y-57964D01*
X93459Y-57983D01*
X93469Y-58002D01*
X93278Y-58164D02*
X93269Y-58192D01*
X93269Y-58240D01*
X93278Y-58259D01*
X93288Y-58269D01*
X93307Y-58278D01*
X93326Y-58278D01*
X93345Y-58269D01*
X93354Y-58259D01*
X93364Y-58240D01*
X93373Y-58202D01*
X93383Y-58183D01*
X93392Y-58173D01*
X93411Y-58164D01*
X93430Y-58164D01*
X93450Y-58173D01*
X93459Y-58183D01*
X93469Y-58202D01*
X93469Y-58249D01*
X93459Y-58278D01*
X93269Y-58364D02*
X93469Y-58364D01*
G54D11*
X83807Y-60385D02*
X83807Y-60157D01*
X83921Y-60271D02*
X83692Y-60271D01*
X83621Y-59871D02*
X83621Y-60014D01*
X83764Y-60028D01*
X83750Y-60014D01*
X83735Y-59985D01*
X83735Y-59914D01*
X83750Y-59885D01*
X83764Y-59871D01*
X83792Y-59857D01*
X83864Y-59857D01*
X83892Y-59871D01*
X83907Y-59885D01*
X83921Y-59914D01*
X83921Y-59985D01*
X83907Y-60014D01*
X83892Y-60028D01*
X83621Y-59771D02*
X83921Y-59671D01*
X83621Y-59571D01*
X83921Y-59164D02*
X83778Y-59264D01*
X83921Y-59335D02*
X83621Y-59335D01*
X83621Y-59221D01*
X83635Y-59192D01*
X83650Y-59178D01*
X83678Y-59164D01*
X83721Y-59164D01*
X83750Y-59178D01*
X83764Y-59192D01*
X83778Y-59221D01*
X83778Y-59335D01*
X83907Y-59049D02*
X83921Y-59007D01*
X83921Y-58935D01*
X83907Y-58907D01*
X83892Y-58892D01*
X83864Y-58878D01*
X83835Y-58878D01*
X83807Y-58892D01*
X83792Y-58907D01*
X83778Y-58935D01*
X83764Y-58992D01*
X83750Y-59021D01*
X83735Y-59035D01*
X83707Y-59049D01*
X83678Y-59049D01*
X83650Y-59035D01*
X83635Y-59021D01*
X83621Y-58992D01*
X83621Y-58921D01*
X83635Y-58878D01*
X83621Y-58792D02*
X83621Y-58621D01*
X83921Y-58707D02*
X83621Y-58707D01*
X83635Y-58228D02*
X83621Y-58257D01*
X83621Y-58300D01*
X83635Y-58342D01*
X83664Y-58371D01*
X83692Y-58385D01*
X83750Y-58400D01*
X83792Y-58400D01*
X83850Y-58385D01*
X83878Y-58371D01*
X83907Y-58342D01*
X83921Y-58300D01*
X83921Y-58271D01*
X83907Y-58228D01*
X83892Y-58214D01*
X83792Y-58214D01*
X83792Y-58271D01*
X83921Y-58085D02*
X83621Y-58085D01*
X83921Y-57914D01*
X83621Y-57914D01*
X83921Y-57771D02*
X83621Y-57771D01*
X83621Y-57700D01*
X83635Y-57657D01*
X83664Y-57628D01*
X83692Y-57614D01*
X83750Y-57600D01*
X83792Y-57600D01*
X83850Y-57614D01*
X83878Y-57628D01*
X83907Y-57657D01*
X83921Y-57700D01*
X83921Y-57771D01*
G54D13*
X84050Y-58350D02*
G75*
G03X84050Y-58350I-50J0D01*
G74*
G01*
X84000Y-58800D02*
X84000Y-58400D01*
X84000Y-58400D02*
X84600Y-58400D01*
X84600Y-58400D02*
X84600Y-58800D01*
X84600Y-59200D02*
X84600Y-59600D01*
X84600Y-59600D02*
X84000Y-59600D01*
X84000Y-59600D02*
X84000Y-59200D01*
X84650Y-61450D02*
G75*
G03X84650Y-61450I-50J0D01*
G74*
G01*
X84600Y-61000D02*
X84600Y-61400D01*
X84600Y-61400D02*
X84000Y-61400D01*
X84000Y-61400D02*
X84000Y-61000D01*
X84000Y-60600D02*
X84000Y-60200D01*
X84000Y-60200D02*
X84600Y-60200D01*
X84600Y-60200D02*
X84600Y-60600D01*
X92900Y-61100D02*
G75*
G03X92900Y-61100I-50J0D01*
G74*
G01*
X92400Y-61100D02*
X92800Y-61100D01*
X92800Y-61100D02*
X92800Y-61700D01*
X92800Y-61700D02*
X92400Y-61700D01*
X92000Y-61700D02*
X91600Y-61700D01*
X91600Y-61700D02*
X91600Y-61100D01*
X91600Y-61100D02*
X92000Y-61100D01*
X82850Y-60650D02*
G75*
G03X82850Y-60650I-50J0D01*
G74*
G01*
X82800Y-61100D02*
X82800Y-60700D01*
X82800Y-60700D02*
X83400Y-60700D01*
X83400Y-60700D02*
X83400Y-61100D01*
X83400Y-61500D02*
X83400Y-61900D01*
X83400Y-61900D02*
X82800Y-61900D01*
X82800Y-61900D02*
X82800Y-61500D01*
G54D14*
X93200Y-57500D02*
X93200Y-60500D01*
X91200Y-60500D02*
X91200Y-57500D01*
X91200Y-57500D02*
X93200Y-57500D01*
X93200Y-60500D02*
X91200Y-60500D01*
G54D15*
X83500Y-60500D02*
X82500Y-60500D01*
X82500Y-60500D02*
X82500Y-57500D01*
X82500Y-57500D02*
X83500Y-57500D01*
X83500Y-57500D02*
X83500Y-60500D01*
X82500Y-59500D02*
X83500Y-59500D01*
X94500Y-60500D02*
X93500Y-60500D01*
X93500Y-60500D02*
X93500Y-57500D01*
X93500Y-57500D02*
X94500Y-57500D01*
X94500Y-57500D02*
X94500Y-60500D01*
X93500Y-59500D02*
X94500Y-59500D01*
G54D16*
X86800Y-60950D02*
X86800Y-58450D01*
X84800Y-60950D02*
X84800Y-58450D01*
X85800Y-57450D02*
G75*
G03X84800Y-58450I0J-1000D01*
G74*
G01*
X86800Y-58450D02*
G75*
G03X85800Y-57450I-1000J0D01*
G74*
G01*
X84800Y-60950D02*
G75*
G03X85800Y-61950I1000J0D01*
G74*
G01*
X85800Y-61950D02*
G75*
G03X86800Y-60950I0J1000D01*
G74*
G01*
G54D17*
X89500Y-57500D02*
X89500Y-58000D01*
X89500Y-58000D02*
X88500Y-58000D01*
X88500Y-58000D02*
X88500Y-57500D01*
X90000Y-57500D02*
X90000Y-61500D01*
X90000Y-61500D02*
X88000Y-61500D01*
X88000Y-61500D02*
X88000Y-57500D01*
X88000Y-57500D02*
X90000Y-57500D01*
G54D10*
X91176Y-64223D02*
X93223Y-64223D01*
X91176Y-62727D02*
X91176Y-63672D01*
X93223Y-62176D02*
X91176Y-62176D01*
X93223Y-63672D02*
X93223Y-62727D01*
X83976Y-64223D02*
X86023Y-64223D01*
X83976Y-62727D02*
X83976Y-63672D01*
X86023Y-62176D02*
X83976Y-62176D01*
X86023Y-63672D02*
X86023Y-62727D01*
G54D18*
X84485Y-59032D02*
X84495Y-59042D01*
X84504Y-59070D01*
X84504Y-59089D01*
X84495Y-59117D01*
X84476Y-59136D01*
X84457Y-59145D01*
X84420Y-59154D01*
X84392Y-59154D01*
X84354Y-59145D01*
X84335Y-59136D01*
X84317Y-59117D01*
X84307Y-59089D01*
X84307Y-59070D01*
X84317Y-59042D01*
X84326Y-59032D01*
X84504Y-58845D02*
X84504Y-58957D01*
X84504Y-58901D02*
X84307Y-58901D01*
X84335Y-58920D01*
X84354Y-58939D01*
X84364Y-58957D01*
X84210Y-59131D02*
X84220Y-59140D01*
X84229Y-59168D01*
X84229Y-59187D01*
X84220Y-59215D01*
X84201Y-59234D01*
X84182Y-59243D01*
X84145Y-59253D01*
X84117Y-59253D01*
X84079Y-59243D01*
X84060Y-59234D01*
X84042Y-59215D01*
X84032Y-59187D01*
X84032Y-59168D01*
X84042Y-59140D01*
X84051Y-59131D01*
X84229Y-59046D02*
X84032Y-59046D01*
X84032Y-58971D01*
X84042Y-58953D01*
X84051Y-58943D01*
X84070Y-58934D01*
X84098Y-58934D01*
X84117Y-58943D01*
X84126Y-58953D01*
X84135Y-58971D01*
X84135Y-59046D01*
X84229Y-58746D02*
X84229Y-58859D01*
X84229Y-58803D02*
X84032Y-58803D01*
X84060Y-58821D01*
X84079Y-58840D01*
X84089Y-58859D01*
X84235Y-60832D02*
X84245Y-60842D01*
X84254Y-60870D01*
X84254Y-60889D01*
X84245Y-60917D01*
X84226Y-60936D01*
X84207Y-60945D01*
X84170Y-60954D01*
X84142Y-60954D01*
X84104Y-60945D01*
X84085Y-60936D01*
X84067Y-60917D01*
X84057Y-60889D01*
X84057Y-60870D01*
X84067Y-60842D01*
X84076Y-60832D01*
X84076Y-60757D02*
X84067Y-60748D01*
X84057Y-60729D01*
X84057Y-60682D01*
X84067Y-60663D01*
X84076Y-60654D01*
X84095Y-60645D01*
X84114Y-60645D01*
X84142Y-60654D01*
X84254Y-60767D01*
X84254Y-60645D01*
X84510Y-60931D02*
X84520Y-60940D01*
X84529Y-60968D01*
X84529Y-60987D01*
X84520Y-61015D01*
X84501Y-61034D01*
X84482Y-61043D01*
X84445Y-61053D01*
X84417Y-61053D01*
X84379Y-61043D01*
X84360Y-61034D01*
X84342Y-61015D01*
X84332Y-60987D01*
X84332Y-60968D01*
X84342Y-60940D01*
X84351Y-60931D01*
X84529Y-60846D02*
X84332Y-60846D01*
X84332Y-60771D01*
X84342Y-60753D01*
X84351Y-60743D01*
X84370Y-60734D01*
X84398Y-60734D01*
X84417Y-60743D01*
X84426Y-60753D01*
X84435Y-60771D01*
X84435Y-60846D01*
X84529Y-60546D02*
X84529Y-60659D01*
X84529Y-60603D02*
X84332Y-60603D01*
X84360Y-60621D01*
X84379Y-60640D01*
X84389Y-60659D01*
X92167Y-61604D02*
X92101Y-61510D01*
X92054Y-61604D02*
X92054Y-61407D01*
X92129Y-61407D01*
X92148Y-61417D01*
X92157Y-61426D01*
X92167Y-61445D01*
X92167Y-61473D01*
X92157Y-61492D01*
X92148Y-61501D01*
X92129Y-61510D01*
X92054Y-61510D01*
X92354Y-61604D02*
X92242Y-61604D01*
X92298Y-61604D02*
X92298Y-61407D01*
X92279Y-61435D01*
X92260Y-61454D01*
X92242Y-61464D01*
X92260Y-61329D02*
X92195Y-61235D01*
X92148Y-61329D02*
X92148Y-61132D01*
X92223Y-61132D01*
X92242Y-61142D01*
X92251Y-61151D01*
X92260Y-61170D01*
X92260Y-61198D01*
X92251Y-61217D01*
X92242Y-61226D01*
X92223Y-61235D01*
X92148Y-61235D01*
X83304Y-61332D02*
X83210Y-61398D01*
X83304Y-61445D02*
X83107Y-61445D01*
X83107Y-61370D01*
X83117Y-61351D01*
X83126Y-61342D01*
X83145Y-61332D01*
X83173Y-61332D01*
X83192Y-61342D01*
X83201Y-61351D01*
X83210Y-61370D01*
X83210Y-61445D01*
X83126Y-61257D02*
X83117Y-61248D01*
X83107Y-61229D01*
X83107Y-61182D01*
X83117Y-61163D01*
X83126Y-61154D01*
X83145Y-61145D01*
X83164Y-61145D01*
X83192Y-61154D01*
X83304Y-61267D01*
X83304Y-61145D01*
X83029Y-61239D02*
X82935Y-61304D01*
X83029Y-61351D02*
X82832Y-61351D01*
X82832Y-61276D01*
X82842Y-61257D01*
X82851Y-61248D01*
X82870Y-61239D01*
X82898Y-61239D01*
X82917Y-61248D01*
X82926Y-61257D01*
X82935Y-61276D01*
X82935Y-61351D01*
G54D14*
G54D15*
G54D19*
G54D14*
X89059Y-61204D02*
X89059Y-61014D01*
X89202Y-61242D02*
X88702Y-61109D01*
X89202Y-60976D01*
X88702Y-60900D02*
X88702Y-60671D01*
X89202Y-60785D02*
X88702Y-60785D01*
X88702Y-60595D02*
X88702Y-60366D01*
X89202Y-60480D02*
X88702Y-60480D01*
X89202Y-60233D02*
X88702Y-60233D01*
X89202Y-60042D02*
X88702Y-60042D01*
X89202Y-59814D01*
X88702Y-59814D01*
X88964Y-59547D02*
X89202Y-59547D01*
X88702Y-59680D02*
X88964Y-59547D01*
X88702Y-59414D01*
X88916Y-59223D02*
X88892Y-59261D01*
X88869Y-59280D01*
X88821Y-59300D01*
X88797Y-59300D01*
X88750Y-59280D01*
X88726Y-59261D01*
X88702Y-59223D01*
X88702Y-59147D01*
X88726Y-59109D01*
X88750Y-59090D01*
X88797Y-59071D01*
X88821Y-59071D01*
X88869Y-59090D01*
X88892Y-59109D01*
X88916Y-59147D01*
X88916Y-59223D01*
X88940Y-59261D01*
X88964Y-59280D01*
X89011Y-59300D01*
X89107Y-59300D01*
X89154Y-59280D01*
X89178Y-59261D01*
X89202Y-59223D01*
X89202Y-59147D01*
X89178Y-59109D01*
X89154Y-59090D01*
X89107Y-59071D01*
X89011Y-59071D01*
X88964Y-59090D01*
X88940Y-59109D01*
X88916Y-59147D01*
X88702Y-58709D02*
X88702Y-58900D01*
X88940Y-58919D01*
X88916Y-58900D01*
X88892Y-58861D01*
X88892Y-58766D01*
X88916Y-58728D01*
X88940Y-58709D01*
X88988Y-58690D01*
X89107Y-58690D01*
X89154Y-58709D01*
X89178Y-58728D01*
X89202Y-58766D01*
X89202Y-58861D01*
X89178Y-58900D01*
X89154Y-58919D01*
X89011Y-58519D02*
X89011Y-58214D01*
X89202Y-58023D02*
X88702Y-58023D01*
X88702Y-57871D01*
X88726Y-57833D01*
X88750Y-57814D01*
X88797Y-57795D01*
X88869Y-57795D01*
X88916Y-57814D01*
X88940Y-57833D01*
X88964Y-57871D01*
X88964Y-58023D01*
M02*
